HIERARCHY
ROOT Hips
{
	OFFSET -3.958830 18.904000 13.208200
	CHANNELS 6 Xposition Yposition Zposition Zrotation Yrotation Xrotation 
	JOINT LHipJoint
	{
		OFFSET 0.000000 0.000000 0.000000
		CHANNELS 3 Zrotation Yrotation Xrotation
		JOINT LeftUpLeg
		{
			OFFSET 1.800000 -1.400000 0.085000
			CHANNELS 3 Zrotation Yrotation Xrotation
			JOINT LeftLeg
			{
				OFFSET 2.215000 -6.000000 0.000000
				CHANNELS 3 Zrotation Yrotation Xrotation
				JOINT LeftFoot
				{
					OFFSET 2.500000 -6.900000 0.000000
					CHANNELS 3 Zrotation Yrotation Xrotation
					JOINT LeftToeBase
					{
						OFFSET 0.200000 -0.500000 1.950000
						CHANNELS 3 Zrotation Yrotation Xrotation
						End Site
						{
							OFFSET 0.000000 0.000000 0.000000
						}
					}
				}
			}
		}
	}
	JOINT RHipJoint
	{
		OFFSET 0.000000 0.000000 0.000000
		CHANNELS 3 Zrotation Yrotation Xrotation
		JOINT RightUpLeg
		{
			OFFSET -1.800000 -1.400000 0.085000
			CHANNELS 3 Zrotation Yrotation Xrotation
			JOINT RightLeg
			{
				OFFSET -2.215000 -6.000000 0.000000
				CHANNELS 3 Zrotation Yrotation Xrotation
				JOINT RightFoot
				{
					OFFSET -2.500000 -6.900000 0.000000
					CHANNELS 3 Zrotation Yrotation Xrotation
					JOINT RightToeBase
					{
						OFFSET -0.200000 -0.500000 1.950000
						CHANNELS 3 Zrotation Yrotation Xrotation
						End Site
						{
							OFFSET 0.000000 0.000000 0.000000
						}
					}
				}
			}
		}
	}
	JOINT LowerBack
	{
		OFFSET 0.000000 0.000000 0.000000
		CHANNELS 3 Zrotation Yrotation Xrotation
		JOINT Spine
		{
			OFFSET -0.087000 1.940000 -0.288900
			CHANNELS 3 Zrotation Yrotation Xrotation
			JOINT Spine1
			{
				OFFSET 0.000000 1.950000 0.060000
				CHANNELS 3 Zrotation Yrotation Xrotation
				JOINT Neck
				{
					OFFSET 0.000000 0.000000 0.000000
					CHANNELS 3 Zrotation Yrotation Xrotation
					JOINT Neck1
					{
						OFFSET 0.000000 1.600000 0.340000
						CHANNELS 3 Zrotation Yrotation Xrotation
						JOINT Head
						{
							OFFSET 0.000000 1.667000 -0.240000
							CHANNELS 3 Zrotation Yrotation Xrotation
							End Site
							{
								OFFSET 0.000000 0.000000 0.000000
							}
						}
					}
				}
				JOINT LeftShoulder
				{
					OFFSET 0.000000 0.000000 0.000000
					CHANNELS 3 Zrotation Yrotation Xrotation
					JOINT LeftArm
					{
						OFFSET 2.700000 1.550000 -0.730000
						CHANNELS 3 Zrotation Yrotation Xrotation
						JOINT LeftForeArm
						{
							OFFSET 5.450000 0.000000 0.000000
							CHANNELS 3 Zrotation Yrotation Xrotation
							JOINT LeftHand
							{
								OFFSET 3.450000 0.000000 0.000000
								CHANNELS 3 Zrotation Yrotation Xrotation
								JOINT LeftHandIndex1
								{
									OFFSET 0.750000 0.000000 0.000000
									CHANNELS 3 Zrotation Yrotation Xrotation
									End Site
									{
										OFFSET 0.000000 0.000000 0.000000
									}
								}
							}
						}
					}
				}
				JOINT RightShoulder
				{
					OFFSET 0.000000 0.000000 0.000000
					CHANNELS 3 Zrotation Yrotation Xrotation
					JOINT RightArm
					{
						OFFSET -2.700000 1.550000 -0.730000
						CHANNELS 3 Zrotation Yrotation Xrotation
						JOINT RightForeArm
						{
							OFFSET -5.450000 0.000000 0.000000
							CHANNELS 3 Zrotation Yrotation Xrotation
							JOINT RightHand
							{
								OFFSET -3.450000 0.000000 0.000000
								CHANNELS 3 Zrotation Yrotation Xrotation
								JOINT RightHandIndex1
								{
									OFFSET -0.750000 0.000000 0.000000
									CHANNELS 3 Zrotation Yrotation Xrotation
									End Site
									{
										OFFSET 0.000000 0.000000 0.000000
									}
								}
							}
						}
					}
				}
			}
		}
	}
}
MOTION
Frames: 13
Frame Time: 0.016667
-0.406070 16.547670 -1.820780 -4.781280 21.305553 -3.367127 -15.411451 12.096216 4.137632 16.970679 -1.299665 -36.776547 -7.058352 12.063453 35.013123 -0.454522 8.095200 1.839491 0.174490 -0.456890 0.065390 18.160739 -10.395760 2.622985 -13.976761 6.250447 -17.900313 15.239223 -13.847232 39.508401 -0.664790 -7.658496 1.989494 -0.010690 0.762650 0.192140 -3.411286 -0.891374 -8.282923 4.865271 4.931985 18.488782 -2.302092 7.539817 10.307528 2.052484 -4.567206 -11.639121 -8.915806 -0.365750 31.091200 0.097870 -5.501930 -2.320040 -4.975052 -13.424978 5.389811 -9.209190 -6.995204 -4.297379 102.124775 -41.454902 -52.443507 -4.008236 2.482467 0.516650 0.441420 -0.508190 0.255110 1.317754 21.343611 6.636096 -3.955143 16.799262 -9.991209 -87.753620 40.512499 -38.512020 1.479294 -1.328490 -0.542480 0.469710 0.271100 -0.297440 
-0.383560 16.545020 -1.816190 -4.920398 21.059415 -3.806257 -15.398491 12.122361 4.123736 17.041862 -1.211419 -36.503322 -6.962001 12.190133 35.541786 -0.427806 8.169204 1.809630 0.189330 -0.440120 0.080770 18.163643 -10.437258 2.608662 -14.008076 6.206970 -17.478623 15.091412 -13.813906 39.553201 -0.677211 -7.661226 1.987981 -0.008570 0.739250 0.192440 -3.440964 -0.853195 -8.293389 5.209019 4.819235 18.976688 -2.719581 7.554468 10.288237 2.190916 -4.476788 -11.700985 -8.758419 -0.257761 31.304512 -0.177110 -5.124890 -2.386290 -5.622010 -13.472492 5.383788 -9.438598 -6.596222 -4.419148 102.605795 -41.962330 -53.491718 -3.990562 2.480747 0.521270 0.429670 -0.494600 0.257480 1.651760 21.343138 6.788091 -2.825242 16.564599 -9.875634 -88.140487 42.154065 -40.225186 1.457792 -1.280604 -0.531820 0.454710 0.254640 -0.302220 
-0.345990 16.536430 -1.804810 -4.938915 20.508703 -4.587809 -15.405526 12.237687 4.113534 17.086250 -1.106173 -35.946883 -6.773813 12.470422 36.656312 -0.384147 8.356938 1.736028 0.174020 -0.478140 0.112460 18.132986 -10.495377 2.553463 -14.053675 6.082678 -16.582260 14.340157 -13.630697 39.930505 -0.678036 -7.629428 1.992012 -0.040620 0.703840 0.181820 -3.390956 -0.950077 -8.305689 5.116763 4.816932 19.881838 -2.819659 7.656388 10.116053 2.333750 -4.366980 -11.996836 -8.752527 -0.147640 32.130034 -0.149530 -4.852700 -2.540960 -6.339140 -13.639483 5.532757 -9.851207 -5.632010 -4.675541 103.426365 -42.583068 -55.090980 -3.968462 2.444998 0.554740 0.398210 -0.476640 0.228820 2.095789 21.501283 7.178886 -1.837485 15.299955 -9.926417 -88.506256 44.888700 -42.562259 1.434367 -1.144181 -0.538060 0.443390 0.256700 -0.325010 
-0.295080 16.523470 -1.786790 -5.026369 20.224981 -5.358900 -15.404133 12.331507 4.110354 16.771501 -1.170675 -35.914654 -5.783721 12.549520 38.630434 -0.322068 8.552557 1.655463 0.184530 -0.467590 0.124460 18.116862 -10.546323 2.505350 -14.130663 5.930737 -15.740557 13.779122 -13.569634 40.291727 -0.702750 -7.634996 1.986991 -0.053120 0.664120 0.185000 -3.380494 -1.029412 -8.322394 5.391519 4.635465 20.635287 -3.104580 7.598524 9.650253 2.469683 -4.340658 -12.033951 -8.919974 0.052128 32.900894 0.276920 -4.742540 -3.137400 -7.078979 -13.325982 5.514251 -9.576306 -4.327532 -4.814680 104.654297 -42.640585 -56.156182 -3.940510 2.458008 0.579680 0.364960 -0.444630 0.223850 2.516322 21.118051 7.225295 -2.198151 14.047052 -9.665175 -88.981629 47.875185 -44.728764 1.391876 -0.999584 -0.519010 0.421140 0.244550 -0.328730 
-0.242340 16.501620 -1.747510 -4.813501 19.880031 -5.659853 -15.442197 12.359869 4.171563 16.747023 -1.226389 -36.099229 -5.651114 13.168314 40.726441 -0.228231 8.956468 1.519471 0.189840 -0.475930 0.147700 18.084682 -10.517574 2.436784 -14.589548 5.831701 -15.302811 13.293985 -13.712468 41.101307 -0.734232 -7.746649 1.942382 -0.066360 0.644110 0.196530 -3.262291 -1.170535 -8.335402 4.701531 4.824290 20.237298 -2.413445 7.519272 9.170363 2.469109 -4.099614 -11.836620 -8.765029 0.173086 33.800075 -0.534140 -4.173000 -2.428350 -7.806294 -12.535280 5.315809 -8.398676 -2.593615 -4.614125 105.996958 -41.966723 -55.963000 -3.943721 2.494713 0.589040 0.358860 -0.430410 0.222920 3.266666 20.090777 7.108948 -3.280542 12.703359 -8.935917 -90.676828 49.775837 -46.872380 1.361856 -0.906149 -0.510960 0.398690 0.232360 -0.338570 
-0.180740 16.472210 -1.699880 -4.853333 19.088452 -6.054441 -15.425515 12.312241 4.196249 16.933004 -1.107789 -36.117035 -5.451901 13.865261 42.895707 -0.171716 9.432616 1.354518 0.165380 -0.518760 0.154740 18.112188 -10.535030 2.390503 -15.016260 5.835821 -14.764422 13.146495 -13.914676 41.606203 -0.740432 -7.858469 1.898459 -0.074280 0.656230 0.192550 -3.312115 -1.078084 -8.345340 5.290670 4.878644 19.543987 -2.638665 7.538898 8.948585 2.423574 -4.045010 -11.464055 -8.834036 0.404017 34.457161 -0.922210 -3.865790 -2.037170 -7.861923 -11.253046 4.797597 -6.714171 -1.079829 -4.320528 107.153273 -40.304302 -54.386072 -3.987214 2.518682 0.601830 0.370500 -0.446380 0.197730 3.329118 18.555169 6.929532 -4.147437 11.584882 -8.215846 -92.956831 49.777883 -48.384731 1.361018 -0.886806 -0.539660 0.411840 0.260820 -0.358530 
-0.101140 16.441830 -1.643230 -5.090323 18.056797 -6.393665 -15.370807 12.217578 4.199271 17.168305 -0.904366 -36.035788 -5.277998 14.614846 44.959976 -0.104834 9.948049 1.205099 0.111060 -0.598480 0.127470 18.180797 -10.601252 2.339998 -15.371931 5.848448 -14.265905 12.809584 -14.016095 42.046316 -0.714340 -7.981547 1.863399 -0.087110 0.726310 0.192580 -3.479233 -0.816949 -8.331123 6.792136 4.802098 18.031212 -3.094845 7.432286 8.943733 2.363425 -4.135474 -11.043591 -9.041400 1.004563 35.103818 -1.814660 -3.274420 0.510780 -7.711386 -9.831863 4.299587 -5.280252 0.556263 -3.892223 108.048949 -37.825495 -51.393158 -4.080893 2.566014 0.576960 0.430020 -0.505660 0.188360 3.193831 16.914985 6.646991 -4.989117 11.290020 -7.349116 -95.092022 48.136103 -48.489175 1.390111 -0.983187 -0.587690 0.433950 0.304220 -0.366450 
-0.029840 16.415310 -1.583030 -5.268567 16.871511 -7.018729 -15.319233 12.211717 4.149912 17.494725 -0.512431 -35.326569 -5.183819 15.267067 46.378984 -0.056431 10.342785 1.079076 0.058100 -0.681420 0.098340 18.231563 -10.691127 2.283332 -15.556900 5.897183 -13.449632 12.125967 -13.910007 42.565944 -0.689609 -8.065982 1.831668 -0.109590 0.776320 0.199140 -3.617573 -0.638380 -8.288934 8.054319 4.819498 16.706506 -3.252856 7.384634 8.948348 2.274153 -4.352715 -10.791645 -9.596929 1.899583 36.326473 -2.104350 -2.715980 2.744210 -7.304780 -8.646666 3.936698 -4.060609 2.525441 -3.755477 108.825923 -34.296999 -47.054990 -4.160953 2.648188 0.570710 0.469430 -0.551680 0.170800 2.901399 15.671631 6.468197 -6.234632 10.754424 -6.848524 -96.939837 45.280624 -47.123590 1.447435 -1.123347 -0.626770 0.436480 0.352690 -0.377460 
0.034830 16.392570 -1.520120 -5.061360 15.999018 -7.856609 -15.278662 12.306055 4.019473 17.067940 -0.356400 -34.218418 -4.402914 15.412224 47.858860 0.018765 10.518677 1.024353 0.076090 -0.670630 0.112030 18.247872 -10.805006 2.251479 -16.316701 5.862406 -12.495500 11.774145 -13.978894 43.017328 -0.712730 -8.174143 1.791136 -0.110110 0.757330 0.204520 -3.698794 -0.562906 -8.222149 8.620640 4.883950 15.760332 -3.130252 7.270211 8.981409 2.151739 -4.424631 -10.665271 -10.060083 2.562991 38.156755 -2.301400 -2.177140 4.152570 -6.672546 -7.763993 3.550876 -2.184139 4.417368 -3.842596 109.138214 -30.197870 -41.435130 -4.176109 2.773317 0.565210 0.464420 -0.548150 0.177340 2.490002 14.680753 6.490184 -7.115948 9.602821 -6.616262 -99.147659 41.531299 -45.237801 1.532274 -1.308180 -0.611060 0.406120 0.335240 -0.381210 
0.107010 16.358670 -1.448470 -4.696109 15.411737 -8.309532 -15.237668 12.351097 3.916456 16.317498 -0.469391 -33.504507 -3.446419 15.506171 49.806606 0.086474 10.767521 0.956176 0.063880 -0.692160 0.110540 18.273258 -10.909992 2.204162 -17.474597 5.714667 -11.635180 11.604643 -14.155705 43.159557 -0.710810 -8.268164 1.760519 -0.116050 0.761010 0.190290 -3.793628 -0.462473 -8.139267 9.269517 5.154978 14.293505 -2.997908 7.317630 8.986317 2.028107 -4.322272 -10.508102 -10.265315 2.800598 39.744163 -2.537450 -1.975560 5.603060 -5.863120 -6.941983 3.156182 -0.023192 5.425035 -3.599979 109.127962 -26.497727 -35.951697 -4.214732 2.837545 0.563130 0.470790 -0.564340 0.174250 1.887841 13.522990 6.508873 -8.273582 7.182826 -6.489360 -102.109089 37.012417 -42.666114 1.610169 -1.470663 -0.626240 0.405020 0.339060 -0.390440 
0.174940 16.335330 -1.375310 -4.820305 14.956152 -8.919403 -15.197641 12.404931 3.821013 16.075900 -0.479759 -32.593992 -2.664955 15.490230 51.242945 0.155791 10.931066 0.923933 0.070700 -0.668170 0.127750 18.297288 -11.021216 2.155568 -17.954413 5.461676 -10.515409 11.332098 -14.120718 42.947660 -0.719942 -8.275737 1.774418 -0.109960 0.756120 0.185080 -3.889719 -0.356542 -8.067443 10.274076 5.338220 13.273652 -2.635640 7.361437 8.666468 2.030593 -3.966474 -10.222185 -9.785029 2.397680 40.381541 -3.685990 -1.511110 5.784150 -5.379827 -6.313853 2.671847 2.549426 6.511607 -3.474150 110.046473 -22.292942 -30.448892 -4.263474 2.879606 0.552930 0.481160 -0.551920 0.179360 1.321103 12.431558 6.432804 -9.466460 4.035891 -6.675047 -105.461909 31.356999 -38.711678 1.693240 -1.623104 -0.620070 0.416410 0.319420 -0.388520 
0.232210 16.313730 -1.294900 -4.521189 14.223819 -9.270180 -15.168068 12.446743 3.756318 15.810942 -0.442196 -31.601603 -2.571296 15.800910 52.368521 0.289147 11.100854 0.880108 0.100910 -0.613170 0.133920 18.305897 -11.128710 2.110435 -18.684713 5.361645 -9.546163 10.941949 -13.945153 42.720479 -0.732480 -8.268738 1.774917 -0.109810 0.735350 0.220650 -3.938408 -0.245739 -8.016877 10.668385 5.815365 12.479969 -2.447360 7.755293 7.825889 2.018653 -3.713166 -10.058698 -9.378709 2.242949 40.547162 -3.851650 -1.295740 6.145500 -4.809131 -5.714584 2.303814 4.770013 7.808172 -3.459181 112.470395 -17.675740 -25.118926 -4.299693 2.997579 0.518040 0.482990 -0.519850 0.197500 0.716589 11.645137 6.385263 -10.679063 0.271127 -6.930968 -108.817027 24.997155 -33.105747 1.802710 -1.799091 -0.556780 0.371600 0.284070 -0.359620 
0.287100 16.304490 -1.224350 -4.006763 13.733800 -9.734538 -15.135563 12.534167 3.673991 15.424155 -0.425977 -30.147057 -2.731524 16.076002 52.989368 0.398602 11.194203 0.870685 0.087510 -0.600620 0.097980 18.300012 -11.246594 2.093790 -19.585876 5.310615 -8.592207 10.638771 -13.832672 42.562055 -0.744198 -8.268750 1.787991 -0.132880 0.732470 0.223800 -3.980130 -0.181381 -8.003827 10.860826 6.141724 11.893249 -2.571349 8.077941 6.854231 2.025328 -3.507977 -10.336973 -9.421765 2.204444 42.500777 -3.773570 -1.472130 7.323720 -4.060536 -5.753151 2.219716 7.303927 9.363560 -3.417286 114.602431 -12.827816 -18.719283 -4.318344 3.054886 0.510940 0.475550 -0.493940 0.216870 -0.041396 11.594770 6.669737 -11.303729 -2.832568 -7.230584 -111.317934 18.459287 -25.790372 1.907198 -1.897081 -0.527280 0.363040 0.273150 -0.329330 
